<svg width="25" height="26" viewBox="0 0 25 26" fill="none" xmlns="http://www.w3.org/2000/svg">
<g clip-path="url(#clip0)">
<path d="M23.993 8.16848C23.3482 6.6571 22.4277 5.30117 21.2573 4.13845C18.8934 1.79013 15.7861 0.5 12.4986 0.5C12.4713 0.5 12.4435 0.500191 12.4162 0.500191C9.0713 0.522125 5.93658 1.84792 3.5894 4.23325C1.24279 6.61819 -0.0316977 9.77504 0.000345703 13.1226C0.0323891 16.4492 1.3456 19.5637 3.69831 21.892C6.04949 24.219 9.17467 25.5001 12.4998 25.5H12.5057C14.9415 25.499 17.3024 24.7963 19.333 23.4684L18.2641 21.8338C16.5519 22.9536 14.5603 23.5459 12.5047 23.5468C12.503 23.5468 12.5017 23.5468 12.4999 23.5468C6.73957 23.5468 2.00878 18.863 1.95347 13.1037C1.92619 10.279 3.00174 7.61535 4.98157 5.6031C6.96196 3.59047 9.60688 2.47181 12.429 2.45331C12.4521 2.45312 12.475 2.45312 12.4982 2.45312C15.2662 2.45312 17.8857 3.54222 19.8806 5.52414C21.9224 7.55241 23.0466 10.2412 23.0466 13.0953V13.4638C23.0466 15.1467 21.6775 16.5156 19.9949 16.5156C18.3122 16.5156 16.9431 15.1467 16.9431 13.4638V7.2871H14.99V8.27357C14.2913 7.80494 13.4513 7.53124 12.5486 7.53124C10.1255 7.53124 8.15405 9.50267 8.15405 11.9258V14.0742C8.15405 16.4973 10.1255 18.4687 12.5486 18.4687C14.0193 18.4687 15.3234 17.7424 16.1216 16.6298C17.0402 17.7516 18.4352 18.4687 19.9949 18.4687C22.7546 18.4687 24.9997 16.2236 24.9997 13.4638V13.0953C24.9997 11.3915 24.661 9.73384 23.993 8.16848ZM14.99 14.0742C14.99 15.4204 13.8948 16.5156 12.5486 16.5156C11.2024 16.5156 10.1072 15.4204 10.1072 14.0742V11.9258C10.1072 10.5796 11.2024 9.48436 12.5486 9.48436C13.8948 9.48436 14.99 10.5796 14.99 11.9258V14.0742Z" fill="black" fill-opacity="0.25"/>
</g>
<defs>
<clipPath id="clip0">
<rect y="0.5" width="25" height="25" fill="white"/>
</clipPath>
</defs>
</svg>
