<svg width="45" height="45" viewBox="0 0 45 45" fill="none" xmlns="http://www.w3.org/2000/svg">
<g clip-path="url(#clip0)">
<path d="M15.5812 8.66943H7.71289C6.9847 8.66943 6.39453 9.25961 6.39453 9.98779C6.39453 10.716 6.9847 11.3062 7.71289 11.3062H15.5812C16.309 11.3062 16.8995 10.716 16.8995 9.98779C16.8995 9.25961 16.309 8.66943 15.5812 8.66943Z" fill="#E97A5A"/>
<path d="M15.5812 13.9429H7.71289C6.9847 13.9429 6.39453 14.533 6.39453 15.2612C6.39453 15.9894 6.9847 16.5796 7.71289 16.5796H15.5812C16.309 16.5796 16.8995 15.9894 16.8995 15.2612C16.8995 14.533 16.309 13.9429 15.5812 13.9429Z" fill="#E97A5A"/>
<path d="M15.5812 19.2168H7.71289C6.9847 19.2168 6.39453 19.807 6.39453 20.5352C6.39453 21.2633 6.9847 21.8535 7.71289 21.8535H15.5812C16.309 21.8535 16.8995 21.2633 16.8995 20.5352C16.8995 19.807 16.309 19.2168 15.5812 19.2168Z" fill="#E97A5A"/>
<path d="M15.5812 24.4907H7.71289C6.9847 24.4907 6.39453 25.0809 6.39453 25.8091C6.39453 26.5373 6.9847 27.1274 7.71289 27.1274H15.5812C16.309 27.1274 16.8995 26.5373 16.8995 25.8091C16.8995 25.0809 16.309 24.4907 15.5812 24.4907Z" fill="#E97A5A"/>
<path d="M15.5812 29.8525H7.71289C6.9847 29.8525 6.39453 30.4431 6.39453 31.1709C6.39453 31.8991 6.9847 32.4893 7.71289 32.4893H15.5812C16.309 32.4893 16.8995 31.8991 16.8995 31.1709C16.8995 30.4431 16.309 29.8525 15.5812 29.8525Z" fill="#E97A5A"/>
<path d="M20.0088 11.3062H27.8771C28.6052 11.3062 29.1954 10.716 29.1954 9.98779C29.1954 9.25961 28.6052 8.66943 27.8771 8.66943H20.0088C19.2809 8.66943 18.6904 9.25961 18.6904 9.98779C18.6904 10.716 19.2809 11.3062 20.0088 11.3062Z" fill="#E97A5A"/>
<path d="M20.0088 16.5796H27.8771C28.6052 16.5796 29.1954 15.9894 29.1954 15.2612C29.1954 14.533 28.6052 13.9429 27.8771 13.9429H20.0088C19.2809 13.9429 18.6904 14.533 18.6904 15.2612C18.6904 15.9894 19.2809 16.5796 20.0088 16.5796Z" fill="#E97A5A"/>
<path d="M25.1167 20.5352C25.1167 19.807 24.5266 19.2168 23.7984 19.2168H20.0088C19.2809 19.2168 18.6904 19.807 18.6904 20.5352C18.6904 21.2633 19.2809 21.8535 20.0088 21.8535H23.7984C24.5266 21.8535 25.1167 21.2633 25.1167 20.5352Z" fill="#E97A5A"/>
<path d="M37.6054 30.4092C37.0376 29.9536 36.2081 30.0446 35.7522 30.6125L32.3567 34.8456L30.2546 33.3227C29.6651 32.8952 28.8404 33.027 28.4133 33.6165C27.9862 34.2064 28.1181 35.0307 28.7076 35.4578L31.826 37.7172C32.0594 37.8861 32.3299 37.9682 32.5988 37.9682C32.9857 37.9682 33.3682 37.7982 33.6277 37.4745L37.809 32.2625C38.2646 31.6946 38.1736 30.8648 37.6054 30.4092Z" fill="#E97A5A"/>
<path d="M40.9381 26.362C39.2208 24.6145 37.0143 23.5131 34.6234 23.1887V5.30949C34.6234 2.38197 32.2414 0 29.3139 0H6.27663C3.34877 0 0.966797 2.38197 0.966797 5.30949V35.8491C0.966797 38.7769 3.34877 41.1589 6.27628 41.1589H24.8051C26.8901 43.6082 29.888 45 33.1313 45C39.1687 45 44.0802 40.085 44.0802 34.0435C44.0802 31.1514 42.9644 28.4233 40.9381 26.362ZM3.60352 35.8491V5.30949C3.60352 3.83595 4.80274 2.63672 6.27663 2.63672H29.3139C30.7878 2.63672 31.9867 3.83595 31.9867 5.30949V23.1468C26.4853 23.7212 22.1824 28.3887 22.1824 34.0435C22.1824 35.6108 22.5093 37.1262 23.1362 38.5218H6.27663C4.80274 38.5218 3.60352 37.323 3.60352 35.8491ZM33.1313 42.3633C30.4984 42.3633 28.078 41.1544 26.4901 39.0471C25.397 37.5959 24.8188 35.8659 24.8188 34.0435C24.8188 29.4561 28.548 25.7238 33.1313 25.7238C33.1746 25.7238 33.2182 25.7245 33.2615 25.7252L33.2817 25.7255C35.4697 25.7643 37.5211 26.6467 39.0578 28.2101C40.5962 29.7754 41.4435 31.8473 41.4435 34.0435C41.4435 38.631 37.7147 42.3633 33.1313 42.3633Z" fill="#E97A5A"/>
</g>
<defs>
<clipPath id="clip0">
<rect width="45" height="45" fill="white"/>
</clipPath>
</defs>
</svg>
