<svg width="397" height="457" viewBox="0 0 397 457" fill="none" xmlns="http://www.w3.org/2000/svg">
<mask id="mask0" mask-type="alpha" maskUnits="userSpaceOnUse" x="0" y="0" width="397" height="457">
<path d="M0 122.473L199.5 0.472656L397 111.973V150.473H342V311.973H397V353.473L200 456.473L0 335.473V122.473Z" fill="#C4C4C4"/>
</mask>
<g mask="url(#mask0)">
<path d="M188.042 43.2976C195.446 39.0429 204.554 39.0429 211.958 43.2976L356.421 126.312C363.871 130.593 368.463 138.529 368.463 147.121V312.824C368.463 321.416 363.871 329.353 356.421 333.633L211.958 416.648C204.554 420.902 195.446 420.902 188.042 416.648L43.5789 333.633L35.6071 347.506L43.5789 333.633C36.1295 329.353 31.5366 321.416 31.5366 312.824V147.121C31.5366 138.529 36.1294 130.593 43.5789 126.312L188.042 43.2976Z" stroke="#E97A5A" stroke-width="32"/>
</g>
</svg>
