<svg width="45" height="45" viewBox="0 0 45 45" fill="none" xmlns="http://www.w3.org/2000/svg">
<path d="M45 11.4517C45 10.9515 44.7171 10.4942 44.2694 10.2714L24.6547 0.504888C23.3054 -0.166994 21.6946 -0.166994 20.3453 0.504888L0.730591 10.2714C0.282898 10.4942 0 10.9515 0 11.4517V11.4545V32.459C0 33.6338 0.653343 34.6892 1.70494 35.2128L20.3453 44.4941C21.0114 44.8258 21.7564 45.0009 22.5 45.0009C23.2436 45.0009 23.9886 44.8258 24.6547 44.4941L43.2947 35.2128C44.3467 34.6892 45 33.6338 45 32.459V11.4541C45 11.4535 45 11.4524 45 11.4517ZM21.5205 2.86523C22.134 2.55967 22.866 2.55967 23.4795 2.86523L40.7239 11.4517L23.4792 20.0379C22.866 20.3434 22.134 20.3434 21.5205 20.0379L4.27608 11.4517L21.5205 2.86523ZM2.88013 32.8524C2.7301 32.7776 2.63672 32.6269 2.63672 32.459V13.5834L3.20251 13.8625L20.3453 22.3982C20.6086 22.5294 20.8819 22.6341 21.1614 22.7141L21.1816 22.724V41.9649L2.88013 32.8524ZM42.3633 32.459C42.3633 32.6269 42.2699 32.7776 42.1199 32.8524L23.8184 41.9649V22.724L23.839 22.7137C24.1184 22.6341 24.3914 22.5294 24.6547 22.3982L41.7975 13.8625L42.3633 13.5838V32.459Z" fill="#E97A5A"/>
</svg>
