<svg width="20" height="20" viewBox="0 0 20 20" fill="none" xmlns="http://www.w3.org/2000/svg">
<g clip-path="url(#clip0)">
    <path d="M18.2422 11.7969C17.7561 11.7969 17.2872 12.001 16.9558 12.3568L15.2336 14.2055C15.0111 13.4899 14.3426 12.9688 13.5547 12.9688H10.4813C10.2114 12.9688 10.0922 12.821 9.81898 12.5806C8.27422 11.2212 5.94449 11.2212 4.39977 12.5806C4.13176 12.8164 3.69723 12.9688 3.29277 12.9688H0.585938C0.262344 12.9688 0 13.2312 0 13.5547V19.4141C0 19.7377 0.262344 20.0001 0.585938 20.0001H13.5547C14.8388 20.0001 16.0654 19.3867 16.8359 18.3595L19.649 14.6088C19.8786 14.3026 20 13.9382 20 13.5547C20 12.5855 19.2114 11.7969 18.2422 11.7969ZM2.34375 18.8282H1.17188V14.1407H2.34375V18.8282ZM18.7115 13.9056L15.8984 17.6563C15.3481 18.3901 14.4719 18.8282 13.5547 18.8282H3.51562V14.1315C4.13461 14.0837 4.74164 13.8408 5.17395 13.4603C6.2773 12.4893 7.94145 12.4894 9.0448 13.4603C9.33883 13.7191 9.73332 14.1407 10.4813 14.1407H13.5547C13.8778 14.1407 14.1406 14.4035 14.1406 14.7266C14.1406 15.0497 13.8778 15.3126 13.5547 15.3126H9.9891C9.42676 15.3126 8.8943 15.5846 8.56477 16.0403C8.37512 16.3025 8.43394 16.6688 8.69617 16.8584C8.9584 17.048 9.32473 16.9892 9.51434 16.727C9.62418 16.5751 9.80168 16.4845 9.9891 16.4845H13.9474C14.4335 16.4845 14.9023 16.2805 15.2337 15.9248L17.8133 13.1556C17.9255 13.0352 18.0778 12.9689 18.2422 12.9689C18.5653 12.9689 18.8281 13.2317 18.8281 13.5548C18.8281 13.6826 18.7878 13.8039 18.7115 13.9056Z" fill="#E97A5A"/>
    <path d="M10.918 4.72656C11.2416 4.72656 11.5039 4.46423 11.5039 4.14062C11.5039 3.81702 11.2416 3.55469 10.918 3.55469C10.5944 3.55469 10.332 3.81702 10.332 4.14062C10.332 4.46423 10.5944 4.72656 10.918 4.72656Z" fill="#E97A5A"/>
    <path d="M13.8477 8.24219C14.1713 8.24219 14.4336 7.97985 14.4336 7.65625C14.4336 7.33265 14.1713 7.07031 13.8477 7.07031C13.5241 7.07031 13.2617 7.33265 13.2617 7.65625C13.2617 7.97985 13.5241 8.24219 13.8477 8.24219Z" fill="#E97A5A"/>
    <path d="M14.2227 3.69051C13.9742 3.48336 13.6047 3.51691 13.3975 3.76555L10.4678 7.28117C10.2607 7.52972 10.2943 7.89922 10.5429 8.10637C10.7914 8.31351 11.1609 8.28 11.3681 8.03137L14.2978 4.51574C14.505 4.26715 14.4713 3.89765 14.2227 3.69051Z" fill="#E97A5A"/>
    <path d="M12.3828 0C9.15195 0 6.52344 2.64602 6.52344 5.89844C6.52344 9.15086 9.15195 11.7969 12.3828 11.7969C15.6137 11.7969 18.2422 9.15086 18.2422 5.89844C18.2422 2.64602 15.6137 0 12.3828 0ZM12.3828 10.625C9.79813 10.625 7.69531 8.50469 7.69531 5.89844C7.69531 3.29219 9.79813 1.17188 12.3828 1.17188C14.9675 1.17188 17.0703 3.29219 17.0703 5.89844C17.0703 8.50469 14.9675 10.625 12.3828 10.625Z" fill="#E97A5A"/>
</g>
<defs>
    <clipPath id="clip0">
        <rect width="20" height="20" fill="white"/>
    </clipPath>
</defs>
</svg>
