<svg width="45" height="45" viewBox="0 0 45 45" fill="none" xmlns="http://www.w3.org/2000/svg">
<g clip-path="url(#clip0)">
<path d="M26.6568 4.96126C25.6177 3.43306 24.7007 2.02712 23.8449 0.743441C23.7227 0.560057 23.5393 0.376674 23.3559 0.254418C22.6224 -0.234604 21.6444 0.00990712 21.1553 0.743441C20.3607 2.02712 19.4437 3.37194 18.3434 4.96126C13.5144 12.0521 6.30127 22.7495 6.30127 28.8622C6.30127 33.3246 8.1351 37.359 11.0692 40.2931C14.0034 43.1661 18.0378 45 22.5001 45C26.9625 45 30.9969 43.1661 33.931 40.232C36.8652 37.2979 38.699 33.2634 38.699 28.8011C38.699 22.6883 31.4859 12.0521 26.6568 4.96126ZM31.7304 38.0314C29.3465 40.4154 26.1067 41.8213 22.5001 41.8213C18.8936 41.8213 15.6538 40.3543 13.2698 38.0314C10.8859 35.6474 9.47992 32.4076 9.47992 28.8011C9.47992 23.6664 16.3874 13.458 20.9719 6.67284C21.5221 5.87818 22.0111 5.08352 22.5001 4.41111C22.9892 5.08352 23.4782 5.87818 24.0283 6.67284C28.6129 13.5192 35.5204 23.6664 35.5204 28.8011C35.5204 32.4076 34.0533 35.6474 31.7304 38.0314Z" fill="#E97A5A"/>
<path d="M31.9746 27.7006C31.1188 27.6395 30.3852 28.3119 30.3241 29.1677C30.263 30.5125 29.8351 31.7962 29.1627 32.8965C28.4903 33.9968 27.5122 34.9749 26.3508 35.5861C25.6173 36.014 25.3116 36.9921 25.7395 37.7256C26.2285 38.5814 27.2066 38.8259 27.9401 38.398C29.5906 37.4811 30.9354 36.1363 31.8523 34.6081C32.8304 33.0799 33.3805 31.2461 33.4416 29.3511C33.5028 28.4953 32.8303 27.7618 31.9746 27.7006Z" fill="#E97A5A"/>
</g>
<defs>
<clipPath id="clip0">
<rect width="45" height="45" fill="white"/>
</clipPath>
</defs>
</svg>
