<svg width="32" height="32" viewBox="0 0 32 32" fill="none" xmlns="http://www.w3.org/2000/svg">
<path d="M29.1864 16.5347L24.3119 8.09369C24.1444 7.80369 23.8349 7.625 23.5 7.625C23.1651 7.625 22.8556 7.80362 22.6881 8.09369L17.8135 16.5348V16.5349C17.2404 17.5274 16.9375 18.6608 16.9375 19.8125C16.9375 23.4311 19.8814 26.375 23.5 26.375C27.1186 26.375 30.0625 23.4311 30.0625 19.8125C30.0625 18.6608 29.7596 17.5274 29.1864 16.5347ZM23.5 24.5C19.896 24.5 17.6421 20.5818 19.4373 17.4724L23.5 10.4372L27.5627 17.4724C29.3568 20.5797 27.105 24.5 23.5 24.5Z" fill="black"/>
<path d="M9.31188 13.7187C9.14438 13.4287 8.83494 13.25 8.5 13.25C8.16506 13.25 7.85563 13.4286 7.68813 13.7187L2.81356 22.1597V22.1598C2.24044 23.1524 1.9375 24.2858 1.9375 25.4375C1.9375 29.0561 4.88144 32 8.5 32C12.1186 32 15.0625 29.0561 15.0625 25.4375C15.0625 24.2858 14.7596 23.1524 14.1864 22.1597L9.31188 13.7187ZM8.5 30.125C4.896 30.125 2.64213 26.2068 4.43725 23.0974L8.5 16.0622L12.5627 23.0974C14.3568 26.2047 12.105 30.125 8.5 30.125Z" fill="black"/>
<path d="M14.1251 13.1875C16.7098 13.1875 18.8126 11.0847 18.8126 8.5C18.8126 7.6755 18.5961 6.86588 18.1893 6.16375L14.9391 0.472625C14.7723 0.180375 14.4616 0 14.1251 0C13.7886 0 13.4779 0.180375 13.3109 0.472562L10.0625 6.16006C9.65363 6.86675 9.4375 7.67588 9.4375 8.5C9.43756 11.0847 11.5404 13.1875 14.1251 13.1875ZM11.6881 7.09456L14.125 2.82787L16.5639 7.09863C17.6387 8.95375 16.291 11.3125 14.1251 11.3125C11.9576 11.3125 10.6112 8.95588 11.6881 7.09456Z" fill="black"/>
</svg>
