<svg width="16" height="17" viewBox="0 0 16 17" fill="none" xmlns="http://www.w3.org/2000/svg">
<path d="M14.439 2.42285H1.56098C0.699238 2.42377 0.000914634 3.12209 0 3.98383V12.7965C0.000914634 13.6581 0.699238 14.3564 1.56098 14.3575H14.439C15.3008 14.3564 15.9991 13.6581 16 12.7965V3.98383C15.9991 3.12209 15.3008 2.42377 14.439 2.42285ZM1.56098 3.20334H14.439C14.6465 3.20319 14.8454 3.28596 14.9916 3.43322L8.35091 7.76736C8.0878 7.94008 7.74665 7.93749 7.48628 7.76081L1.02881 3.4134C1.17302 3.27834 1.36326 3.20319 1.56098 3.20334ZM15.2195 12.7965C15.2191 13.2273 14.8698 13.5765 14.439 13.577H1.56098C1.13018 13.5765 0.780945 13.2273 0.780488 12.7965V4.18718L7.04985 8.40806C7.57043 8.76081 8.25213 8.76584 8.7779 8.42087L15.2195 4.21645V12.7965Z" fill="#C7C7C7"/>
</svg>
