<svg width="14" height="14" viewBox="0 0 14 14" fill="none" xmlns="http://www.w3.org/2000/svg">
<g clip-path="url(#clip0)">
<path d="M10.1957 3.83389C9.1183 2.84791 8.18776 1.99641 8.18776 0.546872C8.18776 0.347455 8.07924 0.163739 7.90449 0.0677158C7.72964 -0.0284145 7.51645 -0.0217922 7.348 0.0850193C7.32301 0.100934 7.29396 0.119092 7.26127 0.139707C6.71781 0.481397 5.27415 1.38919 3.94092 2.7615C2.21495 4.53799 1.33984 6.39822 1.33984 8.2906C1.33984 11.3715 3.78348 13.8899 6.82719 13.996C6.87536 13.9986 6.92385 14 6.97267 14C6.98185 14 6.99093 13.9997 7.00012 13.9996C7.0092 13.9997 7.01817 14 7.02725 14C8.43439 14 9.78587 13.4811 10.8331 12.539C11.0576 12.3369 11.0758 11.9912 10.8739 11.7667C10.6718 11.5422 10.326 11.5239 10.1015 11.7259C9.92473 11.8849 9.73717 12.0288 9.54085 12.1572C9.63089 11.8892 9.6797 11.6026 9.6797 11.3048C9.6797 10.2625 9.05913 9.67402 8.51161 9.1547C7.99635 8.66604 7.5894 8.28013 7.5894 7.54687C7.5894 7.33378 7.4656 7.14002 7.27227 7.05052C7.07884 6.96101 6.85112 6.99209 6.68865 7.12998C6.58964 7.21394 4.26563 9.21088 4.26563 11.3048C4.26563 11.5652 4.30301 11.8171 4.37255 12.0555C3.20008 11.2183 2.4336 9.84278 2.4336 8.2906C2.4336 5.98123 4.1193 3.58384 7.19954 1.48681C7.31938 2.00122 7.54197 2.48849 7.87085 2.95964C8.31369 3.5942 8.89506 4.12623 9.45732 4.64074C10.5646 5.65406 11.6105 6.61131 11.621 8.29401C11.6238 8.72831 11.5657 9.15812 11.4484 9.57137C11.3659 9.86201 11.5346 10.1644 11.8251 10.2467C12.1159 10.3293 12.4181 10.1605 12.5006 9.87002C12.6461 9.35732 12.7181 8.82476 12.7148 8.28718C12.7013 6.12681 11.3701 4.90862 10.1957 3.83389ZM5.35938 11.3048C5.35938 10.3767 6.08987 9.33703 6.71952 8.63517C6.97171 9.2018 7.39415 9.60245 7.75891 9.94831C8.28709 10.4493 8.58595 10.7593 8.58595 11.3048C8.58595 12.1817 7.87213 12.8959 6.99104 12.9058C6.96615 12.9056 6.94126 12.9054 6.91659 12.9049C6.91157 12.9046 6.90666 12.9046 6.90164 12.9044C6.8963 12.9043 6.89096 12.904 6.88562 12.9038C6.03636 12.8588 5.35938 12.1589 5.35938 11.3048Z" fill="white"/>
</g>
<defs>
<clipPath id="clip0">
<rect width="14" height="14" fill="white"/>
</clipPath>
</defs>
</svg>
