<svg width="20" height="20" viewBox="0 0 20 20" fill="none" xmlns="http://www.w3.org/2000/svg">
<g clip-path="url(#clip0)">
<path d="M19.9708 7.72168L19.0179 2.451C18.8834 1.70725 18.2934 1.11726 17.5498 0.982842L12.279 0.0299555C11.6919 -0.0760206 11.0892 0.112377 10.6673 0.534329L0.532338 10.6692C-0.17762 11.3793 -0.17762 12.5346 0.532377 13.2447L6.75591 19.4683C7.11098 19.8234 7.57731 20.0009 8.04371 20.0009C8.51008 20.0009 8.97644 19.8234 9.33148 19.4683L19.4664 9.33347C19.8885 8.91148 20.077 8.30895 19.9708 7.72168ZM18.637 8.50406L8.50211 18.6389C8.2493 18.8917 7.83809 18.8917 7.58536 18.6389L1.36183 12.4153C1.10905 12.1626 1.10905 11.7514 1.36179 11.4986L11.4967 1.3637C11.6193 1.24108 11.7848 1.17386 11.9552 1.17386C11.9935 1.17386 12.0321 1.17726 12.0704 1.18417L17.3411 2.1371C17.6058 2.18491 17.8158 2.39495 17.8637 2.65967L18.8166 7.93031C18.8544 8.13934 18.7872 8.35383 18.637 8.50406Z" fill="#E97A5A"/>
<path d="M16.3268 3.65703C15.7008 3.03097 14.6822 3.03101 14.0562 3.65703C13.4302 4.28304 13.4302 5.30159 14.0562 5.92761C14.3692 6.24061 14.7803 6.39714 15.1915 6.39714C15.6027 6.39714 16.0138 6.24061 16.3267 5.92765C16.63 5.62437 16.797 5.2212 16.797 4.79234C16.7971 4.36347 16.6301 3.96027 16.3268 3.65703ZM15.4974 5.09816V5.09819C15.3288 5.26687 15.0544 5.26694 14.8856 5.09819C14.717 4.92952 14.717 4.65507 14.8856 4.4864C14.97 4.40206 15.0808 4.35991 15.1915 4.35991C15.3023 4.35991 15.4131 4.40214 15.4974 4.48644C15.5791 4.56816 15.6241 4.67675 15.6241 4.7923C15.6241 4.90784 15.5791 5.01644 15.4974 5.09816Z" fill="#E97A5A"/>
<path d="M7.45907 14.9042L6.5529 13.9981L7.08325 13.4677C7.13708 13.4139 7.15696 13.3518 7.1429 13.2816C7.12888 13.2113 7.09497 13.1493 7.04107 13.0954C6.98259 13.0369 6.91751 13.0012 6.84614 12.9883C6.7747 12.9754 6.71322 12.9948 6.66177 13.0462L6.13142 13.5766L5.53779 12.9829L6.44751 12.0732C6.499 12.0217 6.51603 11.9579 6.49845 11.8818C6.48091 11.8058 6.43818 11.7337 6.37025 11.6658C6.30705 11.6026 6.23798 11.5616 6.16298 11.5428C6.0881 11.5242 6.02373 11.5417 5.9699 11.5955L4.75111 12.8143C4.68553 12.88 4.64397 12.9508 4.62643 13.0269C4.60885 13.103 4.62701 13.1679 4.68084 13.2218L6.91118 15.4521C6.96513 15.5061 7.03357 15.5207 7.11669 15.4962C7.19978 15.4716 7.27876 15.4218 7.35372 15.3468C7.42864 15.2719 7.47841 15.1929 7.50298 15.1098C7.52759 15.0267 7.51302 14.9582 7.45907 14.9042Z" fill="#E97A5A"/>
<path d="M10.406 11.7678C10.3803 11.742 10.3534 11.7268 10.3252 11.7221L9.12051 11.3743C9.29375 10.981 9.19781 10.6016 8.8325 10.2364C8.33145 9.73531 7.79282 9.77277 7.21681 10.3488L6.4897 11.0759C6.44052 11.125 6.41654 11.1817 6.41771 11.2462C6.41888 11.3107 6.44173 11.3651 6.48618 11.4095L8.72004 13.6434C8.77398 13.6973 8.84238 13.712 8.92551 13.6873C9.00863 13.6628 9.08762 13.613 9.16254 13.5381C9.23746 13.4631 9.28722 13.3842 9.31187 13.301C9.33644 13.2179 9.32183 13.1495 9.26789 13.0955L8.42145 12.2491L8.65328 12.0173L10.0688 12.4703C10.1718 12.5031 10.2643 12.4786 10.3462 12.3966C10.4282 12.3146 10.4757 12.2063 10.4885 12.0716C10.5015 11.9369 10.4739 11.8357 10.406 11.7678ZM8.34782 11.4797L8.00004 11.8275L7.34677 11.1742L7.69454 10.8264C7.79754 10.7234 7.90118 10.6702 8.0054 10.6667C8.10957 10.6632 8.2202 10.7199 8.33727 10.8369C8.45442 10.9541 8.51114 11.0647 8.50762 11.1689C8.50406 11.2731 8.45082 11.3767 8.34782 11.4797Z" fill="#E97A5A"/>
<path d="M12.4817 10.0783C12.463 10.0034 12.422 9.93436 12.3588 9.87112C12.2909 9.80323 12.2189 9.76054 12.1428 9.74292C12.0666 9.72546 12.0028 9.74241 11.9514 9.79386L11.01 10.7352L10.413 10.1381L10.9398 9.61124C10.9937 9.55741 11.0136 9.4953 10.9995 9.42507C10.9855 9.35479 10.9516 9.2928 10.8977 9.2389C10.8392 9.18042 10.7741 9.14468 10.7028 9.13179C10.6313 9.11893 10.5698 9.13827 10.5184 9.18972L9.99149 9.71659L9.39785 9.12296L10.3392 8.18163C10.3907 8.13015 10.4077 8.06636 10.3902 7.99022C10.3726 7.91417 10.3299 7.84214 10.262 7.77421C10.1988 7.71093 10.1297 7.67003 10.0547 7.65124C9.97981 7.63261 9.91539 7.65015 9.86156 7.70397L8.61118 8.95436C8.54567 9.01995 8.50407 9.09077 8.48653 9.16686C8.46895 9.24304 8.48712 9.30792 8.54094 9.36179L10.7713 11.5921C10.8252 11.6461 10.8901 11.6642 10.9662 11.6466C11.0423 11.6291 11.113 11.5875 11.1786 11.5219L12.429 10.2715C12.4828 10.2177 12.5005 10.1533 12.4817 10.0783Z" fill="#E97A5A"/>
<path d="M14.3748 8.18524C14.3561 8.11032 14.3151 8.04125 14.2519 7.97801C14.184 7.91012 14.112 7.86743 14.0359 7.84981C13.9597 7.83235 13.896 7.84926 13.8445 7.90075L12.9032 8.84203L12.3061 8.24496L12.833 7.71813C12.8868 7.6643 12.9067 7.60219 12.8926 7.53196C12.8786 7.46168 12.8447 7.39969 12.7908 7.34579C12.7323 7.28731 12.6673 7.25157 12.5959 7.23872C12.5244 7.22586 12.463 7.24516 12.4115 7.29665L11.8846 7.82348L11.291 7.22985L12.2323 6.28856C12.2838 6.23704 12.3008 6.17329 12.2833 6.09716C12.2657 6.0211 12.223 5.94907 12.1551 5.88114C12.0919 5.81786 12.0228 5.77696 11.9478 5.75817C11.8729 5.73954 11.8085 5.75708 11.7547 5.81091L10.5043 7.06129C10.4388 7.12684 10.3972 7.1977 10.3796 7.27379C10.3621 7.34997 10.3802 7.41485 10.4341 7.46872L12.6644 9.69906C12.7183 9.75301 12.7832 9.77117 12.8593 9.75351C12.9354 9.73601 13.0062 9.69441 13.0717 9.62883L14.3221 8.37844C14.376 8.32461 14.3936 8.26024 14.3748 8.18524Z" fill="#E97A5A"/>
</g>
<defs>
<clipPath id="clip0">
<rect width="20" height="20" fill="white"/>
</clipPath>
</defs>
</svg>
