<svg width="45" height="45" viewBox="0 0 45 45" fill="none" xmlns="http://www.w3.org/2000/svg">
<path d="M30.5247 25.8235V8.0549C30.5247 3.60633 26.9354 0 22.4836 0C18.0356 0 14.4518 3.465 14.4518 7.91357V25.7143C12.4679 27.7489 11.2241 30.6642 11.2241 33.7307C11.2241 39.9521 16.2724 45 22.5 45C28.7246 45 33.776 39.952 33.776 33.7307C33.776 30.6482 32.5204 27.8613 30.5247 25.8235ZM22.5 41.7857C18.0553 41.7857 14.4384 38.1723 14.4384 33.7307C14.4384 31.6027 15.304 29.4447 16.7534 27.9581L17.6661 27.0219V25.7143V7.91357C17.6661 5.27846 19.7825 3.21429 22.4836 3.21429C25.1454 3.21429 27.3104 5.38574 27.3104 8.0549V25.8236V27.1355L28.2286 28.0727C29.733 29.6089 30.5616 31.6183 30.5616 33.7307C30.5617 38.1722 26.9456 41.7857 22.5 41.7857Z" fill="#E97A5A"/>
<path d="M24.1073 29.1179C24.1073 21.5629 24.1073 23.1911 24.1073 14.4644H20.893C20.893 23.2048 20.893 21.5513 20.893 29.1181C19.2855 30.0533 17.6787 31.1515 17.6787 33.7308C17.6787 36.3892 19.8414 38.5522 22.5001 38.5522C25.1589 38.5522 27.3216 36.3892 27.3216 33.7308C27.3216 31.1517 25.7148 30.0534 24.1073 29.1179Z" fill="#E97A5A"/>
</svg>
