<svg width="20" height="20" viewBox="0 0 20 20" fill="none" xmlns="http://www.w3.org/2000/svg">
<path d="M10 0C4.47305 0 0 4.47254 0 10C0 15.527 4.47254 20 10 20C15.527 20 20 15.5275 20 10C20 4.47305 15.5275 0 10 0ZM10 18.6667C5.22121 18.6667 1.33332 14.7788 1.33332 10C1.33332 5.22117 5.22121 1.33332 10 1.33332C14.7788 1.33332 18.6667 5.22121 18.6667 10C18.6667 14.7788 14.7788 18.6667 10 18.6667Z" fill="#E97A5A"/>
<path d="M9.99988 8.19434C9.63172 8.19434 9.3332 8.49281 9.3332 8.86102V14.4848C9.3332 14.853 9.63168 15.1515 9.99988 15.1515C10.3681 15.1515 10.6666 14.853 10.6666 14.4848V8.86098C10.6665 8.49277 10.368 8.19434 9.99988 8.19434Z" fill="#E97A5A"/>
<path d="M10 4.84863C9.2648 4.84863 8.66668 5.44676 8.66668 6.18195C8.66668 6.91715 9.2648 7.51528 10 7.51528C10.7352 7.51528 11.3333 6.91715 11.3333 6.18195C11.3333 5.44676 10.7352 4.84863 10 4.84863Z" fill="#E97A5A"/>
</svg>
