<svg width="14" height="14" viewBox="0 0 14 14" fill="none" xmlns="http://www.w3.org/2000/svg">
<g clip-path="url(#clip0)">
<path d="M6.15667 7.54633C6.67279 7.03023 6.67287 6.1948 6.15667 5.67862C5.64058 5.16251 4.80515 5.16242 4.28897 5.67862C3.77286 6.19472 3.77277 7.03018 4.28897 7.54633C4.80506 8.06244 5.6405 8.06255 6.15667 7.54633ZM5.22282 6.1742C5.46504 6.1742 5.6611 6.37023 5.6611 6.6125C5.6611 6.99957 5.18965 7.19916 4.91291 6.92239C4.63928 6.64876 4.83123 6.1742 5.22282 6.1742Z" fill="white"/>
<path d="M8.77724 8.84619C8.04739 8.84619 7.45654 9.43681 7.45654 10.1669C7.45654 11.3433 8.88625 11.9255 9.71107 11.1007C10.5472 10.2646 9.94154 8.84619 8.77724 8.84619ZM9.08713 10.4767C8.91625 10.6476 8.63821 10.6476 8.4673 10.4767C8.29603 10.3055 8.296 10.0283 8.4673 9.85691C8.63857 9.68565 8.91581 9.68559 9.08713 9.85691C9.25842 10.0282 9.25842 10.3054 9.08713 10.4767Z" fill="white"/>
<path d="M9.03648 6.35287C8.86419 6.18055 8.58483 6.18055 8.41254 6.35287L5.00326 9.76216C4.72448 10.0409 4.92575 10.5153 5.31522 10.5153C5.42814 10.5153 5.54103 10.4722 5.6272 10.3861L9.03648 6.97678C9.20882 6.80452 9.20882 6.52516 9.03648 6.35287Z" fill="white"/>
<path d="M11.1973 2.63627L8.05638 0.343896C7.42883 -0.114094 6.58513 -0.114673 5.95692 0.342407L2.80496 2.636C2.29496 3.0071 1.99048 3.60519 1.99048 4.23594V11.8764C1.99048 13.0474 2.94311 14 4.11404 14H9.88594C11.0569 14 12.0095 13.0474 12.0095 11.8764V4.23456C12.0096 3.60495 11.7059 3.00746 11.1973 2.63627ZM11.1272 11.8764C11.1272 12.5608 10.5704 13.1176 9.88597 13.1176H4.11407C3.42969 13.1176 2.8729 12.5608 2.8729 11.8764V4.23594C2.8729 3.88649 3.0416 3.55509 3.32416 3.34949L6.47615 1.05593C6.79048 0.827199 7.21651 0.823339 7.53624 1.05668L10.6771 3.34902C10.959 3.55468 11.1272 3.88574 11.1272 4.23456V11.8764Z" fill="white"/>
<path d="M7.01966 2.99391C7.27673 2.99391 7.48512 2.78552 7.48512 2.52845C7.48512 2.27138 7.27673 2.06299 7.01966 2.06299C6.76259 2.06299 6.5542 2.27138 6.5542 2.52845C6.5542 2.78552 6.76259 2.99391 7.01966 2.99391Z" fill="white"/>
</g>
<defs>
<clipPath id="clip0">
<rect width="14" height="14" fill="white"/>
</clipPath>
</defs>
</svg>
