<svg width="44" height="44" viewBox="0 0 44 44" fill="none" xmlns="http://www.w3.org/2000/svg">
<g clip-path="url(#clip0)">
<path d="M20 0H0.799923C0.35836 0 0 0.35836 0 0.799923V20C0 20.4415 0.35836 20.7999 0.799923 20.7999H20C20.442 20.7999 20.7999 20.4415 20.7999 20V0.799923C20.8001 0.35836 20.442 0 20 0ZM19.2 19.2H1.60008V1.60008H19.2V19.2Z" fill="#8C8C8C"/>
<path d="M43.2001 0H24.0001C23.5581 0 23.2002 0.35836 23.2002 0.799923V20C23.2002 20.4415 23.5581 20.7999 24.0001 20.7999H43.2001C43.6422 20.7999 44.0001 20.4415 44.0001 20V0.799923C44.0001 0.35836 43.6422 0 43.2001 0ZM42.4002 19.2H24.8003V1.60008H42.4002V19.2Z" fill="#8C8C8C"/>
<path d="M20 23.2002H0.799923C0.35836 23.2002 0 23.5586 0 24.0001V43.2001C0 43.6417 0.35836 44.0001 0.799923 44.0001H20C20.442 44.0001 20.7999 43.6417 20.7999 43.2001V24.0001C20.8001 23.5586 20.442 23.2002 20 23.2002ZM19.2 42.4002H1.60008V24.8003H19.2V42.4002Z" fill="#8C8C8C"/>
<path d="M43.2001 23.2002H24.0001C23.5581 23.2002 23.2002 23.5586 23.2002 24.0001V43.2001C23.2002 43.6417 23.5581 44.0001 24.0001 44.0001H43.2001C43.6422 44.0001 44.0001 43.6417 44.0001 43.2001V24.0001C44.0001 23.5586 43.6422 23.2002 43.2001 23.2002ZM42.4002 42.4002H24.8003V24.8003H42.4002V42.4002Z" fill="#8C8C8C"/>
</g>
<defs>
<clipPath id="clip0">
<rect width="44" height="44" fill="white"/>
</clipPath>
</defs>
</svg>
