<svg width="35" height="36" viewBox="0 0 35 36" fill="none" xmlns="http://www.w3.org/2000/svg">
<g clip-path="url(#clip0)">
<path d="M32.0446 3.79077H2.95559C1.32397 3.79273 0.00196311 5.11474 0 6.74636V22.086C0.00168266 23.7176 1.32397 25.0399 2.95559 25.0416H16.9256V28.5839C16.9256 30.6171 20.5655 31.6811 24.1605 31.6811C25.9763 31.6811 27.698 31.4225 29.0082 30.9536C30.9744 30.2503 31.4301 29.2973 31.4663 28.6223C31.4668 28.6094 31.4674 28.5968 31.4674 28.5839V25.0416H32.0446C33.6759 25.0399 34.9982 23.7176 35.0001 22.0863V6.74636C34.9982 5.11474 33.6759 3.79273 32.0446 3.79077ZM18.3615 23.3427C19.7603 24.1237 21.9949 24.5253 24.2126 24.5253C26.4135 24.5253 28.6304 24.1299 30.0315 23.3606V24.9098H29.992C29.992 25.0439 29.7323 25.4872 28.546 25.9242C27.3791 26.3535 25.8148 26.5902 24.1408 26.5902C20.4014 26.5902 18.3615 25.4802 18.3615 24.9104V23.3427ZM30.0315 21.2913V21.5282C29.7648 22.0759 27.7939 23.0892 24.2126 23.0892C20.3523 23.0892 18.3615 21.9119 18.3615 21.4093C18.3615 20.9068 20.3523 19.7289 24.2126 19.7289C27.7942 19.7289 29.7651 20.7424 30.0315 21.2901V21.2913ZM26.6654 18.461C25.8526 18.3483 25.0332 18.2922 24.2126 18.2933C21.5874 18.2933 18.9389 18.8562 17.6808 19.9451L9.06673 19.965C8.68729 18.2541 7.19421 17.0653 5.1035 16.8185V12.0145C6.1619 11.89 7.07866 11.5217 7.78286 10.9334C8.42535 10.4036 8.87518 9.67727 9.06336 8.86623H25.978C26.3235 10.3688 27.5889 11.7481 29.8969 12.015V16.8188C28.5239 16.982 27.3884 17.5588 26.6654 18.461ZM24.1605 30.2452C22.5008 30.2452 20.9494 30.0105 19.7923 29.5845C18.7499 29.2009 18.3615 28.767 18.3615 28.5839V26.8695C18.6615 27.0344 18.9742 27.1755 19.2964 27.2916C20.5901 27.7653 22.3104 28.0261 24.1408 28.0261C25.9797 28.0261 27.7204 27.7583 29.0421 27.2717C29.3834 27.148 29.7143 26.9966 30.0315 26.8193V28.5584C29.9704 29.1389 27.8735 30.2452 24.1605 30.2452ZM33.5643 22.086C33.5632 22.9251 32.8834 23.6049 32.0446 23.6058H31.4674V21.7338C31.4887 21.6269 31.4997 21.5181 31.4997 21.4093C31.4997 20.193 30.2043 19.3217 28.3932 18.8149C28.9703 18.4361 29.7385 18.2218 30.6264 18.2075C31.0181 18.2011 31.3325 17.8816 31.3325 17.4896V11.3428C31.3325 10.9508 31.0181 10.6313 30.6264 10.6249C28.6865 10.5938 27.3881 9.60828 27.318 8.11464C27.3 7.73156 26.9842 7.43008 26.6009 7.43008H8.43966C8.05629 7.43008 7.74051 7.73156 7.72256 8.11436C7.65273 9.60772 6.33801 10.5932 4.37379 10.6249C3.98173 10.6311 3.66735 10.9508 3.66735 11.3428V17.4896C3.66735 17.8816 3.98173 18.2011 4.37379 18.2075C6.36999 18.2398 7.65301 19.2011 7.72256 20.7172C7.73995 21.1003 8.05601 21.4023 8.43966 21.4023H8.44134L16.9261 21.3824C16.9261 21.3914 16.9256 21.4003 16.9256 21.4093C16.9256 21.4304 16.9264 21.4511 16.9273 21.4719C16.9267 21.4834 16.9256 21.4949 16.9256 21.5066V23.6058H2.95559C2.11678 23.6046 1.43699 22.9251 1.43587 22.086V6.74636C1.43671 5.90756 2.1165 5.22776 2.95559 5.22664H32.0446C32.8834 5.22776 33.5632 5.90756 33.5643 6.74636V22.086Z" fill="#E97A5A"/>
<path d="M17.4998 10.0984C15.1152 10.0984 13.1821 12.0315 13.1821 14.4161C13.1821 16.8007 15.1152 18.7338 17.4998 18.7338C19.8844 18.7338 21.8175 16.8007 21.8175 14.4161C21.815 12.0326 19.8833 10.1012 17.4998 10.0984ZM17.4998 17.2979C15.9083 17.2979 14.618 16.0076 14.618 14.4161C14.618 12.8243 15.9083 11.5343 17.4998 11.5343C19.0916 11.5343 20.3819 12.8246 20.3817 14.4161C20.38 16.007 19.0908 17.2962 17.4998 17.2979Z" fill="#E97A5A"/>
</g>
<defs>
<clipPath id="clip0">
<rect y="0.236328" width="35" height="35" fill="white"/>
</clipPath>
</defs>
</svg>
