<svg width="35" height="36" viewBox="0 0 35 36" fill="none" xmlns="http://www.w3.org/2000/svg">
<g clip-path="url(#clip0)">
<path d="M10.367 15.4212L10.3657 15.4435C10.2795 16.9539 11.1255 18.3688 12.5217 19.0472L12.536 19.0542C13.0282 19.2897 13.4317 19.6778 13.6862 20.1605L13.6919 20.171C14.3954 21.5105 15.8505 22.3225 17.4016 22.2411L17.4251 22.2398C17.9877 22.2083 18.5461 22.3534 19.0221 22.655C20.3355 23.4766 22.0028 23.4766 23.3162 22.655C23.7922 22.3534 24.3506 22.2083 24.9132 22.2398L24.9367 22.2411C26.4853 22.3232 27.9423 21.5105 28.6473 20.1688L28.6508 20.1615C28.9063 19.6775 29.3107 19.2887 29.8046 19.0529L29.816 19.0472C31.2122 18.3685 32.0585 16.9539 31.972 15.4432L31.9707 15.4222C31.9421 14.8902 32.0897 14.3636 32.3914 13.9242C33.2597 12.6578 33.2597 10.988 32.3917 9.72135C32.0904 9.28226 31.9421 8.75599 31.9707 8.224L31.972 8.20172C32.0585 6.69101 31.2122 5.27638 29.8147 4.59738L29.802 4.59102C29.3107 4.3562 28.9083 3.96993 28.6534 3.48853L28.6461 3.47421C27.9423 2.13467 26.4853 1.32299 24.9367 1.40413L24.9129 1.4054C24.3506 1.4369 23.7922 1.29181 23.3166 0.990179H23.3159C22.0025 0.168638 20.3352 0.168638 19.0218 0.990179C18.5458 1.29149 17.9874 1.43658 17.4248 1.40509L17.4013 1.40381C15.8524 1.32172 14.3958 2.13435 13.6923 3.47357L13.6868 3.48344C13.432 3.96707 13.0282 4.35557 12.5354 4.59134L12.522 4.5977C11.1258 5.27606 10.2795 6.69101 10.366 8.20172L10.3673 8.22272C10.3959 8.75472 10.2483 9.28131 9.94664 9.7204C9.07833 10.9871 9.07833 12.6572 9.94664 13.9236C10.248 14.3626 10.3959 14.8892 10.367 15.4212ZM11.0192 10.4605C11.4847 9.78276 11.7129 8.97013 11.6683 8.14922L11.667 8.12695C11.6212 7.12596 12.1831 6.19624 13.0903 5.77083L13.1014 5.76542C13.8456 5.40906 14.4549 4.82234 14.8393 4.09243L14.8457 4.08034C15.3131 3.19007 16.2921 2.65044 17.3319 2.7058L17.3548 2.70676C18.1869 2.75353 19.0125 2.53908 19.7164 2.09299C20.605 1.53713 21.7327 1.53713 22.6213 2.09299C23.3251 2.53844 24.1508 2.75321 24.9825 2.70708L25.0055 2.7058C26.0504 2.65108 27.0246 3.19007 27.4908 4.0778L27.4993 4.09402C27.8837 4.82297 28.4924 5.40874 29.2357 5.76478L29.2465 5.77019C30.1679 6.21819 30.7273 7.14314 30.671 8.12727L30.6697 8.1505C30.6251 8.9714 30.8536 9.78371 31.3191 10.4614C31.8816 11.282 31.8813 12.3638 31.3185 13.1841C30.8533 13.8621 30.6251 14.6748 30.6697 15.4957L30.671 15.5176C30.7273 16.5018 30.1679 17.427 29.2462 17.8753L29.2366 17.8798C28.4918 18.2368 27.8818 18.8242 27.4971 19.5553L27.4923 19.5649C27.0246 20.4551 26.0472 20.9951 25.0058 20.9394L24.9832 20.9381C24.1511 20.8917 23.3251 21.1065 22.621 21.5522C21.7327 22.1078 20.605 22.1078 19.7167 21.5522C19.0765 21.1466 18.3339 20.9315 17.576 20.9321C17.5025 20.9321 17.4286 20.934 17.3548 20.9381L17.3319 20.9391C16.3058 21.0043 15.335 20.4672 14.8447 19.5633L14.838 19.5509C14.4543 18.8222 13.8459 18.2368 13.103 17.8808L13.0909 17.8747C12.1691 17.4267 11.6098 16.5014 11.6664 15.5176L11.6677 15.4944C11.7119 14.6735 11.4835 13.8609 11.0183 13.1835C10.4561 12.3629 10.4564 11.2811 11.0192 10.4611V10.4605Z" fill="#E97A5A"/>
<path d="M16.964 18.5591C17.2691 18.7497 17.671 18.6565 17.8616 18.3513L25.5809 5.98493C25.7069 5.78734 25.7174 5.53725 25.608 5.33012C25.4985 5.12267 25.286 4.9903 25.0518 4.98299C24.8176 4.97567 24.5974 5.09467 24.4752 5.2948L16.7562 17.6612C16.5656 17.9666 16.6585 18.3685 16.964 18.5591Z" fill="#E97A5A"/>
<path d="M17.6559 11.8546C19.2427 11.8546 20.5339 10.3824 20.5339 8.57289C20.5339 6.7634 19.2427 5.2915 17.6559 5.2915C16.0692 5.2915 14.7783 6.7634 14.7783 8.57289C14.7783 10.3824 16.0692 11.8546 17.6559 11.8546ZM17.6559 6.59477C18.5243 6.59477 19.2306 7.48217 19.2306 8.57289C19.2306 9.66361 18.5243 10.5513 17.6559 10.5513C16.7879 10.5513 16.0816 9.66329 16.0816 8.57289C16.0816 7.48249 16.7879 6.59477 17.6559 6.59477Z" fill="#E97A5A"/>
<path d="M21.8042 15.0729C21.8042 16.8824 23.0951 18.3543 24.6818 18.3543C26.2686 18.3543 27.5598 16.8821 27.5598 15.0729C27.5598 13.264 26.2689 11.7915 24.6821 11.7915C23.0951 11.7915 21.8042 13.2631 21.8042 15.0729ZM26.2565 15.0729C26.2565 16.1636 25.5501 17.051 24.6818 17.051C23.8138 17.051 23.1075 16.1636 23.1075 15.0729C23.1075 13.9822 23.8138 13.0948 24.6818 13.0948C25.5501 13.0948 26.2565 13.9815 26.2565 15.0729Z" fill="#E97A5A"/>
<path d="M34.9154 25.8936C34.0525 24.3622 32.139 23.779 30.5688 24.5687L25.4642 26.9805C24.7594 25.6699 23.4075 24.8356 21.9197 24.7936L17.2074 24.6638C16.4613 24.6425 15.7292 24.4532 15.0658 24.1108L14.5863 23.8623C12.1312 22.5826 9.20488 22.5858 6.75235 23.8706L6.78226 22.7843C6.79212 22.4245 6.50862 22.1248 6.14876 22.1149L0.981517 21.9727C0.621655 21.9628 0.322248 22.2463 0.312384 22.6062L0.000249772 33.9458C-0.00961385 34.3056 0.273885 34.6054 0.633746 34.6152L5.80099 34.7575H5.81912C6.17199 34.7571 6.46058 34.4762 6.47044 34.1236L6.48508 33.5811L7.82748 32.8624C8.35438 32.5789 8.9707 32.5114 9.54628 32.6743L17.5622 34.9242C17.5762 34.9283 17.5902 34.9315 17.6045 34.9347C18.1839 35.0559 18.7745 35.1167 19.3666 35.1164C20.6202 35.117 21.8592 34.8469 22.9986 34.3238C23.0266 34.311 23.0537 34.2964 23.0794 34.2799L34.7019 26.7616C34.9918 26.5745 35.0853 26.1936 34.9154 25.8936ZM1.32101 33.3301L1.5972 23.2937L5.46181 23.4L5.18531 33.4367L1.32101 33.3301ZM22.4113 33.1592C20.9957 33.7981 19.4146 33.9744 17.8931 33.6632L9.89851 31.4197C8.99901 31.1652 8.03557 31.2708 7.21243 31.7134L6.52644 32.0806L6.71035 25.4074C8.88383 23.9616 11.6717 23.813 13.9868 25.0192L14.4663 25.2677C15.3044 25.7005 16.229 25.9394 17.1718 25.9665L21.884 26.0963C23.2077 26.1341 24.3318 27.0766 24.6003 28.3735L17.5813 28.1804C17.2214 28.1705 16.922 28.454 16.9122 28.8139C16.9023 29.1737 17.1858 29.4734 17.5456 29.4833L25.2917 29.6965H25.3102C25.6627 29.6962 25.9513 29.4152 25.9612 29.0627C25.9691 28.7795 25.9478 28.496 25.8982 28.2173L31.1329 25.7434L31.1482 25.7361C31.8908 25.36 32.789 25.4857 33.3996 26.0511L22.4113 33.1592Z" fill="#E97A5A"/>
</g>
<defs>
<clipPath id="clip0">
<rect y="0.236328" width="35" height="35" fill="white"/>
</clipPath>
</defs>
</svg>
