<svg width="31" height="31" viewBox="0 0 31 31" fill="none" xmlns="http://www.w3.org/2000/svg">
<g clip-path="url(#clip0)">
<path d="M21.8206 17.854C20.8988 17.854 19.9936 17.7098 19.1359 17.4264C18.7082 17.2805 18.2214 17.3937 17.9424 17.678L16.2493 18.956C14.2859 17.9079 13.0765 16.6989 12.0427 14.7502L13.2832 13.1013C13.6054 12.7795 13.721 12.3093 13.5825 11.8682C13.2979 11.0059 13.1533 10.1012 13.1533 9.17896C13.1533 8.51272 12.6113 7.9707 11.9451 7.9707H9.17986C8.5137 7.9707 7.97168 8.51272 7.97168 9.17888C7.97168 16.8153 14.1842 23.0278 21.8206 23.0278C22.4868 23.0278 23.0289 22.4858 23.0289 21.8196V19.0622C23.0288 18.396 22.4868 17.854 21.8206 17.854ZM22.1923 21.8197C22.1923 22.0247 22.0257 22.1913 21.8206 22.1913C14.6454 22.1913 8.80821 16.3542 8.80821 9.17892C8.80821 8.97389 8.97486 8.80724 9.1799 8.80724H11.9451C12.1502 8.80724 12.3168 8.97389 12.3168 9.17892C12.3168 10.1907 12.4757 11.1836 12.7865 12.1243C12.8298 12.2632 12.7947 12.4069 12.6542 12.5532L11.2164 14.4573C11.12 14.5851 11.1049 14.7563 11.1772 14.8988C12.3507 17.2054 13.7766 18.6313 16.0994 19.8215C16.2408 19.8954 16.414 19.8799 16.5422 19.7831L18.4901 18.3074C18.5885 18.209 18.736 18.1738 18.8692 18.2192C19.8164 18.532 20.8093 18.6905 21.8206 18.6905C22.0257 18.6905 22.1923 18.8572 22.1923 19.0622V21.8197Z" fill="#E97A5A"/>
</g>
<circle cx="15.5" cy="15.5" r="15" stroke="#E97A5A"/>
<defs>
<clipPath id="clip0">
<rect x="7.97168" y="7.9707" width="15.0571" height="15.0571" fill="white"/>
</clipPath>
</defs>
</svg>
