<svg width="35" height="36" viewBox="0 0 35 36" fill="none" xmlns="http://www.w3.org/2000/svg">
<g clip-path="url(#clip0)">
<path d="M28.8312 21.8996L24.3786 25.9729L22.2282 23.6434C21.9713 23.3634 21.5362 23.3451 21.2562 23.602C20.9765 23.8588 20.9579 24.2939 21.215 24.5739L23.8342 27.4136C23.9669 27.5536 24.1511 27.6335 24.3441 27.6341C24.5167 27.6319 24.6828 27.5684 24.8129 27.4548L29.7684 22.9127C29.9047 22.7902 29.9857 22.6182 29.9933 22.4354C30.0011 22.2525 29.9351 22.0743 29.8099 21.9408C29.6861 21.8048 29.5129 21.7238 29.329 21.716C29.1454 21.7081 28.9661 21.7744 28.8312 21.8996Z" fill="#E97A5A"/>
<path d="M12.1307 22.1407C12.1296 21.7605 11.8216 21.4525 11.4415 21.4514H3.79081C3.41065 21.4525 3.10264 21.7605 3.10156 22.1407V26.414C3.10264 26.7942 3.41065 27.1022 3.79081 27.1032H11.4415C11.8216 27.1022 12.1296 26.7942 12.1307 26.414V22.1407ZM10.7522 25.7937H4.48006V22.8299H10.7522V25.7937Z" fill="#E97A5A"/>
<path d="M28.8106 15.786V10.4443C28.8095 10.3541 28.7909 10.265 28.7554 10.1824L25.8193 2.96599C25.4171 1.969 24.4473 1.31879 23.3725 1.32552H5.45879C4.38345 1.31691 3.41258 1.96766 3.01196 2.96599L0.0619246 10.1891C0.0245006 10.2691 0.00350008 10.356 0 10.4443V27.3446C0.0121157 28.8104 1.20134 29.9937 2.66733 29.9982H17.6655C19.3749 32.4795 22.2557 34.1612 25.5159 34.1612C30.7404 34.1612 35.0001 29.9086 35.0001 24.6773C34.9931 20.6107 32.3946 17.13 28.8106 15.786ZM24.5372 3.46892L27.0944 9.73435H18.5822L17.4932 2.70402H23.3655C23.8762 2.69379 24.3409 2.99749 24.5372 3.46892ZM11.3037 11.1128H17.3001V14.2282L11.3037 16.5854V11.1128ZM11.4208 9.73435L12.565 2.70402H16.0939L17.183 9.73435H11.4208ZM4.28707 3.46892C4.48334 2.99749 4.94804 2.69379 5.45879 2.70402H11.1728L10.0286 9.73435H1.73685L4.28707 3.46892ZM2.66733 28.6197C1.96274 28.6152 1.39061 28.049 1.3785 27.3446V11.1128H9.92517V17.5985C9.92463 17.8279 10.0382 18.0425 10.2283 18.1706C10.3433 18.2455 10.4774 18.2861 10.6144 18.2878C10.7016 18.2886 10.7883 18.2721 10.8694 18.2396L18.2443 15.3447C18.5068 15.2403 18.6789 14.9861 18.6786 14.7037V11.1128H27.4321V15.3862C26.8018 15.2553 26.1596 15.1907 25.5159 15.1931C20.2913 15.1931 16.032 19.4527 16.032 24.6773C16.0339 26.0348 16.3252 27.3767 16.8866 28.6127H2.66733V28.6197ZM25.5092 32.776C21.0363 32.776 17.4105 29.1499 17.4105 24.6773C17.4105 20.2045 21.0363 16.5786 25.5092 16.5786C29.9817 16.5786 33.6078 20.2045 33.6078 24.6773C33.6146 29.1434 29.9753 32.776 25.5092 32.776Z" fill="#E97A5A"/>
</g>
<defs>
<clipPath id="clip0">
<rect y="0.236328" width="35" height="35" fill="white"/>
</clipPath>
</defs>
</svg>
