<svg width="16" height="17" viewBox="0 0 16 17" fill="none" xmlns="http://www.w3.org/2000/svg">
<path d="M14.7162 10.9748C13.7366 10.9748 12.7747 10.8216 11.8633 10.5204C11.4089 10.3654 10.8915 10.4857 10.595 10.7878L8.796 12.1459C6.70963 11.0322 5.42446 9.74741 4.32596 7.6767L5.64408 5.92453C5.98654 5.58253 6.10938 5.08295 5.96221 4.6142C5.65971 3.69795 5.50604 2.73657 5.50604 1.75657C5.50608 1.04861 4.93013 0.472656 4.22221 0.472656H1.28383C0.575958 0.472656 0 1.04861 0 1.75649C0 9.87111 6.60158 16.4727 14.7162 16.4727C15.4241 16.4727 16 15.8967 16 15.1888V12.2587C16 11.5508 15.424 10.9748 14.7162 10.9748ZM15.1111 15.1888C15.1111 15.4067 14.934 15.5838 14.7162 15.5838C7.09158 15.5838 0.888917 9.38107 0.888917 1.75653C0.888917 1.53866 1.066 1.36157 1.28387 1.36157H4.22225C4.44012 1.36157 4.61721 1.53866 4.61721 1.75653C4.61721 2.83161 4.78604 3.88674 5.11633 4.88632C5.16233 5.03391 5.125 5.18666 4.97571 5.34207L3.44792 7.36545C3.3455 7.50128 3.32942 7.68316 3.40625 7.83461C4.65321 10.2856 6.16842 11.8008 8.63671 13.0655C8.78688 13.1441 8.97092 13.1276 9.10721 13.0247L11.1771 11.4566C11.2817 11.352 11.4384 11.3147 11.5799 11.3629C12.5864 11.6953 13.6415 11.8637 14.7162 11.8637C14.934 11.8637 15.1111 12.0408 15.1111 12.2587V15.1888Z" fill="#C7C7C7"/>
</svg>
