<svg width="110" height="110" viewBox="0 0 110 110" fill="none" xmlns="http://www.w3.org/2000/svg">
<path d="M49.4655 3.41552C52.8926 1.4469 57.1074 1.4469 60.5345 3.41552L97.0548 24.394C100.504 26.3756 102.631 30.0504 102.631 34.0287V75.8884C102.631 79.8667 100.504 83.5415 97.0548 85.5231L60.5345 106.502C57.1074 108.47 52.8926 108.47 49.4655 106.502L12.9452 85.5231C9.49558 83.5415 7.3686 79.8667 7.3686 75.8884V34.0287C7.3686 30.0504 9.49557 26.3756 12.9452 24.394L49.4655 3.41552Z" fill="#E97A5A"/>
<path d="M43.072 74.0098C43.3955 74.178 43.7587 74.255 44.1227 74.2325C44.4867 74.2099 44.8376 74.0887 45.1379 73.8818L71.1369 55.8825C71.4025 55.6984 71.6196 55.4527 71.7696 55.1664C71.9195 54.8801 71.9979 54.5617 71.9979 54.2385C71.9979 53.9153 71.9195 53.597 71.7696 53.3107C71.6196 53.0244 71.4025 52.7787 71.1369 52.5946L45.1379 34.5953C44.8382 34.3862 44.4868 34.2634 44.1221 34.2403C43.7574 34.2172 43.3934 34.2947 43.0697 34.4643C42.746 34.6339 42.475 34.8891 42.2864 35.202C42.0978 35.515 41.9987 35.8738 42 36.2392V72.2378C42 72.6029 42.0998 72.961 42.2888 73.2734C42.4777 73.5857 42.7486 73.8404 43.072 74.0098ZM45.9999 40.0571L66.4851 54.2385L45.9999 68.42V40.0571Z" fill="white"/>
</svg>
