<svg width="32" height="32" viewBox="0 0 32 32" fill="none" xmlns="http://www.w3.org/2000/svg">
<path d="M29.3335 17.4884L23.5661 19.4729L21.2405 18.1395V16V13.8915L23.5661 12.5581L29.3335 14.5426C29.7366 14.6977 30.2017 14.4496 30.3258 14.0465C30.4808 13.6434 30.2327 13.1783 29.8296 13.0543L25.3645 11.5349L29.5506 9.11628C29.9227 8.89922 30.0467 8.4031 29.8296 8.03101C29.6126 7.65891 29.1165 7.53488 28.7444 7.75194L24.5583 10.1705L25.4575 5.55039C25.5506 5.11628 25.2715 4.71318 24.8374 4.62015C24.4033 4.52713 24.0002 4.8062 23.9072 5.24031L22.7289 11.2248L20.4033 12.5581L18.6358 11.5349L18.6048 11.5039L16.8064 10.4496V7.78295L21.3955 3.78295C21.7366 3.50388 21.7676 3.00775 21.4575 2.66667C21.1785 2.32558 20.6823 2.29457 20.3413 2.60465L16.8064 5.70543V0.806202C16.8064 0.372093 16.4653 0 16.0002 0C15.5661 0 15.194 0.341085 15.194 0.806202V5.64341L11.6591 2.57364C11.318 2.29457 10.8219 2.32558 10.5428 2.63566C10.2637 2.97674 10.2948 3.47287 10.6048 3.75194L15.194 7.75194V10.4186L13.3955 11.4729L11.5971 12.5271L9.27149 11.1938L8.0932 5.2093C8.00018 4.77519 7.59707 4.49612 7.16297 4.58915C6.72886 4.68217 6.44979 5.08527 6.54281 5.51938L7.44204 10.1395L3.25599 7.72093C2.8839 7.50388 2.38777 7.62791 2.17072 8C1.95366 8.37209 2.0777 8.86822 2.44979 9.08527L6.63583 11.5039L2.17072 13.0233C1.76762 13.1783 1.51956 13.6124 1.67459 14.0155C1.82963 14.4186 2.26374 14.6667 2.66684 14.5116L8.43428 12.5271L10.7599 13.8605V16V18.1085H10.7909L8.46529 19.4419L2.69785 17.4574C2.29475 17.3023 1.82963 17.5504 1.7056 17.9535C1.55056 18.3566 1.79863 18.8217 2.20173 18.9457L6.66684 20.4651L2.4808 22.8837C2.1087 23.1008 1.98467 23.5969 2.20173 23.969C2.41878 24.3411 2.9149 24.4651 3.287 24.2481L7.47304 21.8295L6.57382 26.4496C6.4808 26.8837 6.75987 27.2868 7.19397 27.3798C7.62808 27.4729 8.03118 27.1938 8.12421 26.7597L9.3025 20.7752L11.6281 19.4419L13.4575 20.4961L15.256 21.5504V24.2171L10.6668 28.2171C10.3258 28.4961 10.2948 28.9922 10.6048 29.3333C10.8839 29.6744 11.38 29.7054 11.7211 29.3953L15.256 26.2946V31.1938C15.256 31.6279 15.5971 32 16.0622 32C16.4963 32 16.8684 31.6589 16.8684 31.1938V26.3566L20.4033 29.4574C20.7444 29.7364 21.2405 29.7054 21.5196 29.3953C21.7986 29.0543 21.7676 28.5581 21.4575 28.2791L16.8064 24.2481V21.5814L18.6048 20.5271L20.4033 19.4729L22.7289 20.8062L23.9072 26.7907C24.0002 27.2248 24.4033 27.5039 24.8374 27.4109C25.2715 27.3178 25.5506 26.9147 25.4575 26.4806L24.5583 21.8605L28.7444 24.2791C29.1165 24.4961 29.6126 24.3721 29.8296 24C30.0467 23.6279 29.9227 23.1318 29.5506 22.9147L25.3645 20.4961L29.8296 18.9767C30.2327 18.8217 30.4808 18.3876 30.3258 17.9845C30.1707 17.5814 29.7366 17.3333 29.3335 17.4884ZM19.5661 16V18.1085L17.7676 19.1628L16.0002 20.186L14.1707 19.1318L12.3723 18.0775V16V13.8915L14.1707 12.8372L15.9692 11.7829L17.7676 12.8372L17.7986 12.8682L19.5661 13.8915V16Z" fill="black"/>
</svg>
