<svg width="21" height="21" viewBox="0 0 21 21" fill="none" xmlns="http://www.w3.org/2000/svg">
<path d="M17.8828 2.46094H14.1914V1.8457C14.1914 0.827982 13.3634 0 12.3457 0H8.6543C7.63658 0 6.80859 0.827982 6.80859 1.8457V2.46094H3.11719C2.09947 2.46094 1.27148 3.28892 1.27148 4.30664V5.53711C1.27148 5.87688 1.54695 6.15234 1.88672 6.15234H2.55047L3.63275 19.3161C3.63288 19.3179 3.63304 19.3196 3.63321 19.3214C3.72024 20.2784 4.51049 21 5.47132 21H15.5286C16.4895 21 17.2797 20.2784 17.3668 19.3214C17.3669 19.3196 17.3671 19.3179 17.3672 19.3161L18.4495 6.15234H19.1133C19.4531 6.15234 19.7285 5.87688 19.7285 5.53711V4.30664C19.7285 3.28892 18.9005 2.46094 17.8828 2.46094ZM8.03906 1.8457C8.03906 1.50646 8.31506 1.23047 8.6543 1.23047H12.3457C12.6849 1.23047 12.9609 1.50646 12.9609 1.8457V2.46094H8.03906V1.8457ZM16.1412 19.212C16.1113 19.53 15.8482 19.7695 15.5286 19.7695H5.47132C5.15173 19.7695 4.88873 19.53 4.85879 19.212L3.78509 6.15234H17.2149L16.1412 19.212ZM18.498 4.92188H17.8828H3.11719H2.50195V4.30664C2.50195 3.9674 2.77795 3.69141 3.11719 3.69141H7.42383H13.5762H17.8828C18.2221 3.69141 18.498 3.9674 18.498 4.30664V4.92188Z" fill="#EB5757"/>
<path d="M10.5 7.38281C10.1602 7.38281 9.88477 7.65827 9.88477 7.99805V16.6934C9.88477 17.0331 10.1602 17.3086 10.5 17.3086C10.8398 17.3086 11.1152 17.0331 11.1152 16.6934V7.99805C11.1152 7.65827 10.8398 7.38281 10.5 7.38281Z" fill="#EB5757"/>
<path d="M14.1914 7.38281C13.8516 7.38281 13.5762 7.65827 13.5762 7.99805V16.6934C13.5762 17.0331 13.8516 17.3086 14.1914 17.3086C14.5312 17.3086 14.8066 17.0331 14.8066 16.6934V7.99805C14.8066 7.65827 14.5312 7.38281 14.1914 7.38281Z" fill="#EB5757"/>
<path d="M6.80859 7.38281C6.46882 7.38281 6.19336 7.65827 6.19336 7.99805V16.6934C6.19336 17.0331 6.46882 17.3086 6.80859 17.3086C7.14837 17.3086 7.42383 17.0331 7.42383 16.6934V7.99805C7.42383 7.65827 7.14837 7.38281 6.80859 7.38281Z" fill="#EB5757"/>
</svg>
