<svg width="16" height="17" viewBox="0 0 16 17" fill="none" xmlns="http://www.w3.org/2000/svg">
<g clip-path="url(#clip0)">
<path d="M8 0.472656C5.67378 0.472656 3.78125 2.36519 3.78125 4.69141C3.78125 7.01762 5.67378 8.91016 8 8.91016C10.3262 8.91016 12.2188 7.01762 12.2188 4.69141C12.2188 2.36519 10.3262 0.472656 8 0.472656ZM8 7.97266C6.19072 7.97266 4.71875 6.50069 4.71875 4.69141C4.71875 2.88212 6.19072 1.41016 8 1.41016C9.80928 1.41016 11.2812 2.88212 11.2812 4.69141C11.2812 6.50069 9.80928 7.97266 8 7.97266Z" fill="#C7C7C7"/>
<path d="M13.2489 11.6663C12.0939 10.4935 10.5628 9.84766 8.9375 9.84766H7.0625C5.43725 9.84766 3.90606 10.4935 2.75106 11.6663C1.60172 12.8333 0.96875 14.3737 0.96875 16.0039C0.96875 16.2628 1.17862 16.4727 1.4375 16.4727H14.5625C14.8214 16.4727 15.0312 16.2628 15.0312 16.0039C15.0312 14.3737 14.3983 12.8333 13.2489 11.6663ZM1.92687 15.5352C2.16172 12.8762 4.37534 10.7852 7.0625 10.7852H8.9375C11.6247 10.7852 13.8383 12.8762 14.0731 15.5352H1.92687Z" fill="#C7C7C7"/>
</g>
<defs>
<clipPath id="clip0">
<rect y="0.472656" width="16" height="16" fill="white"/>
</clipPath>
</defs>
</svg>
