<svg width="40" height="50" fill="none" xmlns="http://www.w3.org/2000/svg"><path d="M20 0C9.376 0 .732 8.644.732 19.27c0 7.592 3.179 15.272 9.193 22.209 4.491 5.181 8.942 8.117 9.13 8.24a1.725 1.725 0 001.89 0c.187-.123 4.64-3.059 9.13-8.24 6.015-6.937 9.194-14.617 9.194-22.21C39.269 8.645 30.624 0 19.999 0zm0 46.152C16.456 43.512 4.187 33.349 4.187 19.27 4.187 10.55 11.28 3.454 20 3.454S35.814 10.55 35.814 19.27c0 14.079-12.27 24.241-15.814 26.882z" fill="#E87A5A"/><path d="M20 11.618c-4.216 0-7.646 3.43-7.646 7.648 0 4.216 3.43 7.646 7.647 7.646 4.217 0 7.647-3.43 7.647-7.646 0-4.217-3.43-7.648-7.647-7.648zm0 11.84a4.197 4.197 0 01-4.192-4.192 4.198 4.198 0 014.193-4.193 4.198 4.198 0 014.192 4.193 4.197 4.197 0 01-4.192 4.192z" fill="#E87A5A"/></svg>