<svg width="40" height="50" viewBox="0 0 40 50" fill="none" xmlns="http://www.w3.org/2000/svg">
<path d="M19.9997 0C9.3755 0 0.732376 8.64427 0.732376 19.2696C0.732376 26.8619 3.91096 34.5416 9.92453 41.4789C14.4161 46.6604 18.8673 49.5961 19.0547 49.7186C19.3417 49.9063 19.6708 50 19.9999 50C20.3288 50 20.6579 49.9063 20.945 49.7186C21.1323 49.5961 25.5842 46.6604 30.0757 41.4792C36.0897 34.5416 39.2685 26.8619 39.2685 19.2696C39.2683 8.64427 30.6243 0 19.9997 0ZM19.9997 46.1519C16.456 43.5113 4.18686 33.3487 4.18686 19.2696C4.18686 10.5491 11.2803 3.45449 19.9997 3.45449C28.7197 3.45449 35.8138 10.5491 35.8138 19.2696C35.8138 33.3487 23.5435 43.5113 19.9997 46.1519Z" fill="#E87A5A"/>
<path d="M20.0009 11.6182C15.7841 11.6182 12.3535 15.0489 12.3535 19.2662C12.3535 23.4823 15.7841 26.9123 20.0009 26.9123C24.2176 26.9123 27.6479 23.4823 27.6479 19.2662C27.6479 15.0492 24.2174 11.6182 20.0009 11.6182ZM20.0009 23.4578C17.6889 23.4578 15.808 21.5774 15.808 19.2662C15.808 16.9537 17.6889 15.0726 20.0009 15.0726C22.3126 15.0726 24.1934 16.9537 24.1934 19.2662C24.1934 21.5774 22.3126 23.4578 20.0009 23.4578Z" fill="#E87A5A"/>
</svg>
