<svg width="50" height="50" viewBox="0 0 50 50" fill="none" xmlns="http://www.w3.org/2000/svg">
<path d="M47.9862 15.337C46.6964 12.3142 44.8555 9.60234 42.5148 7.2769C37.7868 2.58026 31.5723 0 24.9973 0C24.9428 0 24.8871 0.000381469 24.8325 0.000381469C18.1427 0.0442504 11.8733 2.69584 7.17892 7.46649C2.4857 12.2364 -0.0632733 18.5501 0.000813477 25.2452C0.0649003 31.8984 2.69131 38.1274 7.39673 42.784C12.0991 47.438 18.3495 50.0003 24.9996 49.9999H25.0114C29.8832 49.998 34.605 48.5927 38.6661 45.9369L36.5284 42.6677C33.1039 44.9073 29.1206 46.0918 25.0095 46.0937C25.0061 46.0937 25.0034 46.0937 25 46.0937C13.4793 46.0937 4.01768 36.7259 3.90706 25.2075C3.85251 19.5579 6.00361 14.2307 9.96326 10.2062C13.9241 6.18094 19.2139 3.94363 24.8581 3.90662C24.9043 3.90624 24.95 3.90624 24.9966 3.90624C30.5324 3.90624 35.7715 6.08443 39.7613 10.0483C43.845 14.1048 46.0933 19.4824 46.0933 25.1907V25.9277C46.0933 29.2934 43.3551 32.0312 39.9898 32.0312C36.6245 32.0312 33.8863 29.2934 33.8863 25.9277V13.5742H29.9801V15.5471C28.5828 14.6099 26.9028 14.0625 25.0973 14.0625C20.2511 14.0625 16.3082 18.0053 16.3082 22.8515V27.1484C16.3082 31.9946 20.2511 35.9374 25.0973 35.9374C28.0388 35.9374 30.6469 34.4848 32.2433 32.2597C34.0805 34.5031 36.8706 35.9374 39.9898 35.9374C45.5093 35.9374 49.9996 31.4472 49.9996 25.9277V25.1907C49.9996 21.783 49.3221 18.4677 47.9862 15.337ZM29.9801 27.1484C29.9801 29.8408 27.7897 32.0312 25.0973 32.0312C22.4049 32.0312 20.2145 29.8408 20.2145 27.1484V22.8515C20.2145 20.1591 22.4049 17.9687 25.0973 17.9687C27.7897 17.9687 29.9801 20.1591 29.9801 22.8515V27.1484Z" fill="#E87A5A"/>
</svg>
