<svg width="50" height="50" fill="none" xmlns="http://www.w3.org/2000/svg"><path d="M47.986 15.337a25.32 25.32 0 00-5.471-8.06C37.787 2.58 31.572 0 24.997 0h-.165C18.142.044 11.873 2.696 7.18 7.466 2.486 12.236-.063 18.55 0 25.246c.064 6.652 2.69 12.881 7.396 17.538C12.099 47.438 18.349 50 25 50h.011a24.9 24.9 0 0013.655-4.063l-2.138-3.27a21.007 21.007 0 01-11.518 3.427H25c-11.52 0-20.982-9.368-21.093-20.887a20.956 20.956 0 016.056-15 20.95 20.95 0 0114.895-6.3h.139c5.535 0 10.775 2.177 14.764 6.141 4.084 4.057 6.332 9.434 6.332 15.143v.737a6.11 6.11 0 01-6.103 6.103 6.11 6.11 0 01-6.104-6.103V13.574H29.98v1.973a8.738 8.738 0 00-4.883-1.485c-4.846 0-8.789 3.943-8.789 8.79v4.296c0 4.847 3.943 8.79 8.79 8.79a8.784 8.784 0 007.145-3.678 9.994 9.994 0 007.747 3.677c5.52 0 10.01-4.49 10.01-10.01v-.736a24.97 24.97 0 00-2.014-9.854zM29.98 27.148a4.888 4.888 0 01-4.883 4.883 4.888 4.888 0 01-4.883-4.883v-4.296a4.888 4.888 0 014.883-4.883 4.888 4.888 0 014.883 4.883v4.296z" fill="#E87A5A"/></svg>