<svg width="50" height="50" viewBox="0 0 50 50" fill="none" xmlns="http://www.w3.org/2000/svg">
<path d="M45.988 32.8193C42.9268 32.8193 39.9211 32.3405 37.0728 31.3992C35.6527 30.915 34.0359 31.2908 33.1095 32.2348L27.4875 36.4788C20.9676 32.9984 16.9514 28.9836 13.5186 22.5126L17.6378 17.0371C18.7079 15.9684 19.0918 14.4072 18.6319 12.9423C17.6866 10.079 17.2064 7.07474 17.2064 4.01224C17.2065 1.79987 15.4066 0 13.1944 0H4.01198C1.79987 0 0 1.79987 0 4.01198C0 29.3702 20.6299 50 45.988 50C48.2003 50 50.0001 48.2001 50.0001 45.9879V36.8312C50 34.6191 48.2001 32.8193 45.988 32.8193ZM47.2223 45.988C47.2223 46.6689 46.6689 47.2223 45.988 47.2223C22.1612 47.2223 2.77786 27.8388 2.77786 4.01211C2.77786 3.33125 3.33125 2.77786 4.01211 2.77786H13.1945C13.8754 2.77786 14.4288 3.33125 14.4288 4.01211C14.4288 7.37174 14.9564 10.669 15.9885 13.7927C16.1323 14.2539 16.0156 14.7312 15.5491 15.2169L10.7747 21.54C10.4547 21.9645 10.4044 22.5328 10.6445 23.0061C14.5413 30.6654 19.2763 35.4004 26.9897 39.3527C27.459 39.5982 28.0341 39.5467 28.46 39.2253L34.9284 34.3249C35.2552 33.998 35.7449 33.8814 36.1871 34.0319C39.3324 35.0708 42.6297 35.5971 45.988 35.5971C46.6689 35.5971 47.2223 36.1505 47.2223 36.8314V45.988Z" fill="#E87A5A"/>
</svg>
